PathFileType	4	(X/Y/Z)	./motion_analysis/DM_ngait_tm_slow1_new.trc
DataRate	CameraRate	NumFrames	NumMarkers	Units	OrigDataRate	OrigDataStartFrame	OrigNumFrames
120	120	8	68	mm	120	990	1585
Frame#	Time	Sternum			Neck			R_Shoulder			L_Shoulder			Xiphoid			Thoracic			R_Asis			L_Asis			R_Psis			L_Psis			Lumbar			R_Elbow			R_ElbowMedial			R_ShoulderAnterior			R_ShoulderPosterior			R_Wrist			R_Radius			R_Ulna			L_Elbow			L_ElbowMedial			L_ShoulderAnterior			L_ShoulderPosterior			L_Wrist			L_Ulna			L_Radius			L_Thigh_Superior			L_Thigh_Inferior			L_Thigh_Lateral			L_Knee_Lateral			L_Knee_Medial			L_Patella			L_Shank_Superior			L_Shank_Inferior			L_Shank_Lateral			L_Ankle_Lateral			L_Ankle_Medial			R_Thigh_Superior			R_Thigh_Inferior			R_Thigh_Lateral			R_Knee_Lateral			R_Knee_Medial			R_Patella			R_Shank_Superior			R_Shank_Inferior			R_Shank_Lateral			R_Ankle_Lateral			RankleMedial			R_Heel			R_Toe			R_Midfoot_Medial			R_Midfoot_Lateral			R_Hindfoot			R_Midfoot_Superior			R_ToeMedial			R_ToeLateral			L_Heel			L_Toe			L_Midfoot_Medial			L_Midfoot_Lateral			L_Hindfoot			L_Midfoot_Superior			L_ToeMedial			L_ToeLateral			Oglobal			Sacral			Xglobal			Yglobal			Zglobal			
		X1	Y1	Z1	X2	Y2	Z2	X3	Y3	Z3	X4	Y4	Z4	X5	Y5	Z5	X6	Y6	Z6	X7	Y7	Z7	X8	Y8	Z8	X9	Y9	Z9	X10	Y10	Z10	X11	Y11	Z11	X12	Y12	Z12	X13	Y13	Z13	X14	Y14	Z14	X15	Y15	Z15	X16	Y16	Z16	X17	Y17	Z17	X18	Y18	Z18	X19	Y19	Z19	X20	Y20	Z20	X21	Y21	Z21	X22	Y22	Z22	X23	Y23	Z23	X24	Y24	Z24	X25	Y25	Z25	X26	Y26	Z26	X27	Y27	Z27	X28	Y28	Z28	X29	Y29	Z29	X30	Y30	Z30	X31	Y31	Z31	X32	Y32	Z32	X33	Y33	Z33	X34	Y34	Z34	X35	Y35	Z35	X36	Y36	Z36	X37	Y37	Z37	X38	Y38	Z38	X39	Y39	Z39	X40	Y40	Z40	X41	Y41	Z41	X42	Y42	Z42	X43	Y43	Z43	X44	Y44	Z44	X45	Y45	Z45	X46	Y46	Z46	X47	Y47	Z47	X48	Y48	Z48	X49	Y49	Z49	X50	Y50	Z50	X51	Y51	Z51	X52	Y52	Z52	X53	Y53	Z53	X54	Y54	Z54	X55	Y55	Z55	X56	Y56	Z56	X57	Y57	Z57	X58	Y58	Z58	X59	Y59	Z59	X60	Y60	Z60	X61	Y61	Z61	X62	Y62	Z62	X63	Y63	Z63	X64	Y64	Z64	X65	Y65	Z65	X66	Y66	Z66	X67	Y67	Z67	X68	Y68	Z68	

991	8.258333	-798.8440000000001	1387.88	426.572	-650.772	1482.28	399.995	-752.722	1402.85	246.935	-692.504	1447.65	587.312	-804.905	1219.15	437.172	-548.54	1300.64	411.179	-726.979	994.3	307.505	-704.691	1002.71	585.258	-519.726	1054.62	401.194	-515.95	1057.94	478.953	-523.963	1105.59	433.625	-744.525	1086.3	157.636	-0	0	0	-0	0	0	-0	0	0	-887.944	856.831	220.861	-877.2140000000001	870.747	263.43	-844.2809999999999	849.491	200.242	-599.991	1123.21	687.826	-0	0	0	-0	0	0	-0	0	0	-641.145	857.527	695.352	-594.905	868.9829999999999	702.169	-647.861	871.663	650.386	-654.783	838.84	626.87	-726.766	623.748	594.4059999999999	-749.088	714.629	560.822	-0	0	0	-0	0	0	-789.707	550.678	528.431	-725.2670000000001	479.262	597.111	-766.13	209.852	607.076	-789.563	342.595	536.381	-0	0	0	-0	0	0	-614.953	819.369	279.991	-605.01	604.516	324.658	-693.4059999999999	656.765	371.669	-0	0	0	-0	0	0	-665.789	509.978	401.154	-0	0	0	-494.074	211.822	333.871	-577.674	324.872	402.545	-0	0	0	-0	0	0	-386.462	83.505	385.082	-685.3579999999999	64.6118	390.3	-606.082	44.8129	440.633	-597.172	41.7298	323.742	-486.097	43.8632	333.788	-550.433	133.751	384.126	-649.62	54.3182	434.37	-645.604	53.6175	340.778	-731.472	74.7393	552.184	-1020.49	136.401	584.853	-954.967	99.7744	527.8819999999999	-931.6660000000001	92.15779999999999	639.7089999999999	-829.189	62.0405	618.933	-875.712	167.871	576.304	-992.755	111.306	537.102	-983.453	108.507	633.936	-0	0	0	-517.838	1056.28	440.073	-200	0	0	-0	0	200	-0	200	0	
992	8.266667	-799.145	1387.37	427.656	-651.061	1481.79	401.421	-752.605	1402.43	248.071	-693.149	1447.03	588.636	-805.297	1218.62	438.184	-548.6950000000001	1300.25	412.656	-726.826	994.275	308.048	-705.24	1001.76	585.992	-519.823	1054.36	402.435	-516.343	1057.52	480.247	-524.2	1105.28	435.113	-743.904	1085.8	158.823	-0	0	0	-0	0	0	-0	0	0	-886.879	855.939	221.944	-876.08	869.826	264.611	-843.271	848.7430000000001	201.37	-600.732	1122.6	689.224	-0	0	0	-0	0	0	-0	0	0	-642.1849999999999	857.004	696.383	-595.978	868.412	703.384	-648.778	871.222	651.473	-654.394	837.845	627.72	-726.61	623.05	594.232	-748.5069999999999	713.441	561.4640000000001	-0	0	0	-0	0	0	-789.2569999999999	551.372	527.0069999999999	-726.236	479.143	596.924	-771.682	210.314	606.682	-792.599	343.423	535.904	-0	0	0	-0	0	0	-614.045	819.355	280.515	-602.763	604.4400000000001	325.085	-691.523	656.159	372.099	-0	0	0	-0	0	0	-663.062	509.449	401.274	-0	0	0	-490.246	212.029	333.923	-574.378	324.781	402.645	-0	0	0	-0	0	0	-382.341	83.7332	385.093	-681.244	64.61409999999999	390.129	-601.941	44.7559	440.525	-592.973	41.7404	323.637	-481.877	43.9388	333.698	-546.365	133.785	384.087	-646.0359999999999	53.819	434.147	-641.388	53.6085	340.665	-739.627	74.0476	551.711	-1027.18	141.827	584.794	-962.587	103.632	527.601	-939.304	95.90179999999999	639.423	-837.3630000000001	63.5522	618.567	-881.813	170.188	575.689	-999.952	116.316	536.804	-990.6799999999999	113.376	633.773	-0	0	0	-518.083	1055.94	441.341	-200	0	0	-0	0	200	-0	200	0	
993	8.275	-799.441	1386.87	428.705	-651.347	1481.32	402.988	-752.51	1402.04	249.293	-693.801	1446.44	590.03	-805.526	1217.95	438.909	-548.932	1299.87	414.28	-726.439	994.013	308.527	-705.901	1001.04	586.74	-519.8680000000001	1054.04	403.892	-516.678	1057.03	481.695	-524.342	1104.89	436.637	-743.196	1085.28	159.995	-0	0	0	-0	0	0	-0	0	0	-885.731	854.992	222.926	-874.978	868.932	265.585	-842.085	848.013	202.225	-601.524	1121.99	690.667	-0	0	0	-0	0	0	-0	0	0	-643.362	856.395	697.503	-597.116	867.732	704.598	-649.909	870.674	652.702	-654.254	836.802	628.546	-726.978	622.6180000000001	593.747	-748.494	712.569	562.009	-0	0	0	-0	0	0	-789.242	551.694	525.474	-727.357	478.861	596.9690000000001	-776.7380000000001	210.544	606.14	-795.372	343.993	535.561	-0	0	0	-0	0	0	-613.24	819.316	281.055	-600.532	604.354	325.462	-689.612	655.5359999999999	372.493	-0	0	0	-0	0	0	-660.378	508.916	401.542	-0	0	0	-486.433	212.224	334.047	-570.987	324.662	402.836	-0	0	0	-0	0	0	-378.241	83.9764	385.13	-677.11	64.58750000000001	390.171	-597.785	44.7238	440.589	-588.8150000000001	41.6477	323.702	-477.614	43.9884	333.769	-542.3150000000001	133.79	384.094	-641.874	53.7111	434.107	-637.232	53.5536	340.712	-746.909	73.2465	550.877	-1033	146.616	584.302	-969.331	106.916	527.155	-945.943	99.1327	638.952	-844.758	64.8766	617.994	-887.232	172.123	574.838	-1006.24	120.597	536.229	-997.073	117.613	633.322	-0	0	0	-518.273	1055.54	442.794	-200	0	0	-0	0	200	-0	200	0	
994	8.283333000000001	-799.83	1386.35	429.956	-651.658	1480.89	404.624	-752.446	1401.69	250.571	-694.499	1445.85	591.61	-806.025	1217.49	440.098	-549.24	1299.38	416.02	-726.45	993.6420000000001	309.297	-706.586	1000.26	587.596	-520.148	1053.65	405.258	-517.158	1056.49	483.049	-524.722	1104.44	438.077	-742.451	1084.78	161.263	-0	0	0	-0	0	0	-0	0	0	-884.4690000000001	854.019	223.866	-874.104	867.726	266.937	-840.729	847.24	203.139	-602.421	1121.29	692.203	-0	0	0	-0	0	0	-0	0	0	-644.651	855.771	698.73	-598.374	867.009	705.9059999999999	-651.0890000000001	870.152	653.927	-654.498	835.893	629.576	-727.885	622.378	593.015	-749.04	712.043	562.153	-0	0	0	-0	0	0	-789.478	551.941	524.602	-728.571	478.3	597.163	-781.226	210.475	605.5069999999999	-798.071	344.332	535.3	-0	0	0	-0	0	0	-612.491	819.251	281.586	-598.357	604.319	325.823	-687.802	654.932	372.902	-0	0	0	-0	0	0	-657.679	508.474	401.716	-0	0	0	-482.644	212.483	334.16	-567.681	324.52	402.861	-0	0	0	-0	0	0	-374.144	84.28149999999999	385.121	-672.889	64.51819999999999	390.165	-593.64	44.71	440.544	-584.649	41.6621	323.658	-473.378	44.138	333.743	-538.255	133.852	384.069	-637.393	53.6192	434.033	-632.9690000000001	53.5373	340.656	-753.123	72.5981	549.962	-1038.05	150.246	583.698	-975.051	109.505	526.443	-951.669	101.434	638.221	-851.039	65.73480000000001	617.167	-891.995	173.552	574.019	-1011.71	123.939	535.591	-1002.54	120.782	632.71	-0	0	0	-518.653	1055.07	444.154	-200	0	0	-0	0	200	-0	200	0	
995	8.291667	-800.244	1385.82	431.257	-652.027	1480.36	406.329	-752.352	1401.33	251.848	-695.284	1445.16	593.145	-806.41	1216.92	441.15	-549.6180000000001	1298.9	417.828	-726.399	993.414	309.975	-707.351	999.3680000000001	588.456	-520.415	1053.24	406.727	-517.689	1055.93	484.52	-525.091	1103.97	439.672	-741.6559999999999	1084.33	162.685	-0	0	0	-0	0	0	-0	0	0	-883.085	852.968	224.702	-873.1180000000001	866.451	268.228	-839.3	846.513	204.147	-603.428	1120.59	693.793	-0	0	0	-0	0	0	-0	0	0	-645.977	855.102	700.022	-599.707	866.277	707.296	-652.462	869.549	655.362	-655.097	834.981	630.585	-729.296	622.153	592.263	-750.098	711.843	562.059	-0	0	0	-0	0	0	-789.9059999999999	552.0890000000001	524.112	-729.9450000000001	477.515	597.309	-785.049	210.174	604.904	-800.579	344.402	535.026	-0	0	0	-0	0	0	-611.717	819.085	282.169	-596.204	604.301	326.108	-686.054	654.372	373.295	-0	0	0	-0	0	0	-655.116	507.83	401.935	-0	0	0	-478.819	212.721	334.282	-564.432	324.379	402.868	-0	0	0	-0	0	0	-370.052	84.58540000000001	385.18	-668.6559999999999	64.4701	390.18	-589.49	44.7508	440.646	-580.4829999999999	41.5325	323.766	-469.151	44.2288	333.891	-534.203	133.88	384.035	-633.296	53.5901	434.051	-628.772	53.5072	340.676	-758.073	72.28919999999999	549.0650000000001	-1042.36	152.534	582.867	-979.603	111.372	525.308	-956.499	102.622	637.092	-856.245	66.0558	616.124	-896.052	174.453	573.297	-1016.19	126.152	534.702	-1007.16	122.701	631.924	-0	0	0	-519.052	1054.58	445.623	-200	0	0	-0	0	200	-0	200	0	
996	8.300000000000001	-800.671	1385.27	432.553	-652.419	1479.87	408.18	-752.242	1401.07	253.242	-696.053	1444.44	594.722	-806.876	1216.32	442.167	-549.994	1298.4	419.65	-726.486	993.153	310.717	-708.215	998.444	589.322	-520.794	1052.8	408.196	-518.309	1055.32	486.007	-525.576	1103.46	441.272	-740.814	1083.94	164.122	-0	0	0	-0	0	0	-0	0	0	-881.631	851.954	225.613	-871.9	865.347	269.193	-837.724	845.626	205.15	-604.446	1119.81	695.371	-0	0	0	-0	0	0	-0	0	0	-647.407	854.381	701.349	-601.101	865.489	708.681	-653.604	868.818	656.4	-656.1369999999999	834.174	631.6849999999999	-731.1420000000001	621.819	591.633	-751.648	711.918	561.8099999999999	-0	0	0	-0	0	0	-791.0940000000001	552.111	524.326	-731.641	476.664	597.478	-788.1950000000001	209.748	604.349	-802.9109999999999	344.201	534.7380000000001	-0	0	0	-0	0	0	-611.038	818.9880000000001	283.08	-594.148	604.225	326.526	-684.345	653.725	373.706	-0	0	0	-0	0	0	-652.542	507.459	402.003	-0	0	0	-475.008	212.976	334.321	-560.6950000000001	324.433	404.091	-0	0	0	-0	0	0	-365.58	84.9898	385.271	-664.465	64.4609	390.144	-584.932	44.5874	440.667	-575.857	41.2794	323.795	-464.936	44.3287	333.904	-530.174	133.908	383.994	-629.175	53.6008	434.095	-624.533	53.4524	340.804	-761.86	72.0026	548.189	-1045.75	153.665	581.785	-983.115	112.421	524.105	-960.321	103.013	635.899	-860.129	65.9658	614.947	-899.288	174.78	572.58	-1019.61	127.35	533.5359999999999	-1010.8	123.497	630.745	-0	0	0	-519.551	1054.06	447.102	-200	0	0	-0	0	200	-0	200	0	
997	8.308332999999999	-801.119	1384.64	433.911	-652.831	1479.28	409.999	-752.229	1400.79	254.771	-696.886	1443.71	596.461	-807.375	1215.74	443.353	-550.399	1297.86	421.616	-726.617	992.877	311.553	-709.153	997.482	590.164	-521.212	1052.33	409.753	-518.96	1054.67	487.548	-526.1130000000001	1102.91	442.93	-740.0069999999999	1083.6	165.552	-0	0	0	-0	0	0	-0	0	0	-880.09	850.878	226.334	-870.678	864.112	270.231	-836.048	844.861	206.039	-605.617	1118.94	697.073	-0	0	0	-0	0	0	-0	0	0	-648.936	853.6180000000001	702.809	-602.604	864.6559999999999	710.171	-655.322	868.066	658.193	-657.165	833.325	632.607	-733.275	621.429	591.222	-753.525	712.114	561.352	-0	0	0	-0	0	0	-792.538	551.9880000000001	524.252	-733.686	475.858	597.529	-790.573	209.134	603.84	-804.996	343.684	534.463	-0	0	0	-0	0	0	-610.453	818.856	283.764	-592.169	604.123	327.004	-682.713	653.135	374.057	-0	0	0	-0	0	0	-650.111	506.768	402.204	-0	0	0	-471.322	213.281	334.419	-557.755	324.247	403.638	-0	0	0	-0	0	0	-361.517	85.3771	385.266	-660.15	64.32559999999999	390.505	-580.789	44.5606	440.674	-571.705	41.22	323.803	-460.744	44.4553	333.895	-526.184	133.958	383.963	-625.04	53.6195	434.229	-620.338	53.4808	340.681	-764.295	71.48909999999999	547.575	-1048.06	153.806	580.212	-985.317	112.505	522.378	-963.1130000000001	103.026	634.285	-862.712	65.4735	613.852	-901.475	174.563	571.266	-1021.89	127.525	532.003	-1013.3	123.578	629.2670000000001	-0	0	0	-520.086	1053.5	448.651	-200	0	0	-0	0	200	-0	200	0	
998	8.316667000000001	-801.596	1384.01	435.288	-653.196	1478.72	411.916	-752.129	1400.53	256.258	-697.808	1442.95	598.211	-807.919	1215.16	444.501	-550.918	1297.17	423.591	-726.654	992.6369999999999	312.264	-710.221	996.4640000000001	591.02	-521.651	1051.86	411.44	-519.6900000000001	1053.98	489.22	-526.665	1102.35	444.728	-739.2329999999999	1083.27	167.173	-0	0	0	-0	0	0	-0	0	0	-878.479	849.812	227.1	-869.289	862.997	271.055	-834.341	844.092	206.927	-606.9299999999999	1118.07	698.83	-0	0	0	-0	0	0	-0	0	0	-650.544	852.769	704.287	-604.206	863.744	711.701	-656.878	867.341	659.725	-658.721	832.437	633.49	-735.909	621.077	591.032	-755.645	712.404	560.88	-0	0	0	-0	0	0	-794.625	551.808	524.439	-736.076	475.226	597.527	-792.297	208.352	603.396	-806.705	342.932	533.952	-0	0	0	-0	0	0	-609.898	818.7430000000001	284.41	-590.226	604.01	327.416	-681.1369999999999	652.516	374.414	-0	0	0	-0	0	0	-647.8	506.373	402.295	-0	0	0	-467.637	213.663	334.915	-554.679	324.108	403.531	-0	0	0	-0	0	0	-357.504	85.77809999999999	385.245	-656.079	64.3338	390.325	-576.671	44.7102	440.88	-567.674	41.2223	324.007	-456.623	44.5343	333.953	-522.378	134.151	384.003	-620.9349999999999	53.57	434.176	-616.17	53.5465	340.695	-765.378	70.79640000000001	547.266	-1049.31	153.021	578.1900000000001	-986.252	111.69	520.621	-964.741	102.425	632.682	-864.093	64.8058	612.913	-902.691	173.833	569.907	-1022.95	126.626	530.109	-1014.68	122.849	627.452	-0	0	0	-520.67	1052.92	450.33	-200	0	0	-0	0	200	-0	200	0	
